<?xml version="1.0" encoding="utf-8"?>
<!-- Generator: Adobe Illustrator 25.3.1, SVG Export Plug-In . SVG Version: 6.00 Build 0)  -->
<svg version="1.1" id="Layer_1" xmlns="http://www.w3.org/2000/svg" xmlns:xlink="http://www.w3.org/1999/xlink" x="0px" y="0px"
	 viewBox="0 0 1356.5 406.7" style="enable-background:new 0 0 1356.5 406.7;" xml:space="preserve">
<style type="text/css">
	.st0{fill:#3A962A;}
	.st1{fill:#313232;}
</style>
<g>
	<g>
		<g>
			<path class="st0" d="M426.3,216.2c-0.5,0.6-2.4,1.2-3.1,1.6c-2.7,1.6-5.2,3.6-7.5,5.7c-7.9,7-14.6,15.5-18.2,25.6
				c-2.1,5.9-4.1,12-4.9,18.3c-1.3,9.2,1.5,19.1,2.5,28.3c1.1,10.4,1.6,21,0.8,31.4c-0.3,3.8-0.7,7.6-1.6,11.3
				c-0.3,1.4-1.6,8.7-3.1,9.3c0,0,26.4-9,20-72.1c-1.6-15.5-0.3-31,6.3-45.4C419.8,225.2,422.8,220.5,426.3,216.2z"/>
			<g>
				<path class="st1" d="M398.7,146.5h-6.7v8.5h-50.3v-6.5h-9.2C309.7,82.8,247.3,35.6,173.9,35.6C81.2,35.6,6.1,110.7,6.1,203.4
					c0,0.8,0,1.6,0,2.4H0c0-0.8,0-1.6,0-2.4C0,91,91,0,203.4,0C295.9,0,374.1,61.9,398.7,146.5z"/>
				<rect x="296.1" y="178.1" class="st1" width="142.6" height="29.2"/>
				<rect x="341" y="158.1" class="st1" width="52.8" height="28.3"/>
				<rect x="296.1" y="212.5" class="st1" width="142.6" height="7.5"/>
			</g>
			<g>
				<path class="st1" d="M24,291.6h328.1v-70.8H348l-0.6,32.9l-5.2-0.3l-0.5-11.8l-4.9-0.2l-0.5-14l-15.8,0.3v4.9l-3.5,0.1l-0.2,3.3
					l-3.1,0.2l0.2,15h-6.1v-23.9l-14.7,0.1l-0.1,3.7l-5.9-0.1v5.8h-2.4l0.1,20.4l-6.7-0.1l-0.1,5.2l-3.9,0.1l0.1-7.8l-5.2,0.2
					l0.1-6.7h-3.7l-0.2-5.7l-14.1-0.1l0.1,3.8L246,246v3.9h-3v17.8h-11.1l0.8-11.4h-2.1l-0.2-23.6H202l-1,46.2l-5.8-5.8l-0.1-13.8
					H193l0.1-5h-3.7v-4.4H179l-0.1,2.1l-4.5,0.1l0.1,15.4l-10.4,0.2l-0.2-18.7l-1.4,0.2l0.1-3.4l-4.8,0.1l0.2,4.1h-6.6l-8-183.6
					l-6.1,196.4l-9.2-0.3v2.2l-3.6-0.1l-0.1,2.2l-2.9,0.1l0.1-20.9l-3.7,0.1l-0.1-3L114,243l-0.1,3.1l-2.7-0.1l-0.1,2.3l-3.2,0.1
					l0.2,14.8l-4.3,0.1l-0.2-3.1l-2.9-0.1l0-3.7l-3.7,0l0,4.5h-3.8v-13.5l-4.4,0l-0.1-1.5l-2.2,0l0.1-3l-3.7,0l0,3h-4.5l0,9.7
					c0,0-25.1-15.5-62.4,8.5L24,291.6z"/>
				<path class="st1" d="M155,149c0,5.6-4.6,10.2-10.2,10.2c-5.6,0-10.2-4.6-10.2-10.2c0-5.6,4.6-10.2,10.2-10.2
					C150.5,138.8,155,143.4,155,149z"/>
				<rect x="139.2" y="106" class="st1" width="9" height="4.3"/>
				<rect x="141.4" y="103" class="st1" width="4.7" height="3.7"/>
				<rect x="141.8" y="101.2" class="st1" width="3.9" height="2.7"/>
				<rect x="142.2" y="95.1" class="st1" width="3" height="7.5"/>
			</g>
			<path class="st0" d="M334.7,358.6c-35.4,30-81.3,48.1-131.3,48.1C96.9,406.7,9.5,324.9,0.7,220.7H7
				c8.7,84.5,80.1,150.5,166.9,150.5c22.5,0,44-4.4,63.6-12.5H334.7z"/>
			<path class="st0" d="M338.2,310.6c0,8.9-7.2,16-16,16c-8.9,0-16-7.2-16-16c0-8.9,7.2-16.1,16-16.1
				C331,294.6,338.2,301.8,338.2,310.6z"/>
			<path class="st0" d="M360.4,301c0,3.4-2.7,6.1-6.1,6.1c-3.4,0-6.1-2.7-6.1-6.1c0-3.4,2.7-6.1,6.1-6.1
				C357.7,294.9,360.4,297.6,360.4,301z"/>
			<path class="st0" d="M375.7,286.7c-0.1,2.6-2.1,6.3-3.2,8.6c-4.4,8.7-12.1,15.1-20.3,20c-10.9,6.6-22.9,11-33.3,18.4
				c-3,2.1-6.2,4.5-8.1,7.6c-1.6,2.5-3.4,8.2,0.7,9.6c12.8,4.4,28.2,0.1,38.1-8.6c11.9-10.5,20.6-24.9,24.1-40.4
				C374.8,296.9,375.5,291.8,375.7,286.7z"/>
			<path class="st0" d="M391.7,233.4c-4.3,15.9-7,31.9-9.7,48.2c-2.8,17.3-6.9,34.9-15.6,50.3c-1.8,3.2-3.8,6.4-5.9,9.4
				c-2.9,4.3-5.9,7.9-9.3,11.7c-1.5,1.7-6.8,8.2-2.9,10.2c12.6,6.5,27.4-4.6,33.7-14.9c4.7-7.7,5.9-17,7.7-25.7
				c1.8-9,2.7-18.2,2.5-27.3c-0.1-7.5-1.7-15.2-2.6-22.7c-0.9-7.7-0.7-15.4-0.1-23.1C390,244.1,390.7,238.7,391.7,233.4z"/>
		</g>
	</g>
	<g>
		<g>
			<path class="st0" d="M509,109.6h-14.1v43.9h-8.1v-43.9h-14.1v-7.2H509V109.6z"/>
			<path class="st0" d="M526,151.6c-3.1-1.3-5.8-3.2-8.1-5.5c-2.3-2.3-4.2-5-5.5-8.1c-1.3-3.1-2-6.5-2-9.9c0-3.4,0.7-6.8,2-10
				c1.3-3,3.2-5.7,5.5-8.1c2.3-2.3,5-4.1,8.1-5.4c3.1-1.3,6.5-2,9.9-2c3.4,0,6.8,0.7,10,2c3,1.3,5.7,3.1,8.1,5.4
				c2.3,2.4,4.1,5.1,5.4,8.1c1.3,3.2,2,6.5,2,10c0,3.4-0.7,6.8-2,9.9c-1.3,3.1-3.1,5.8-5.4,8.1c-2.4,2.3-5.1,4.2-8.1,5.5
				c-3.2,1.3-6.5,2-10,2C532.5,153.6,529.1,152.9,526,151.6z M523.5,115.6c-3.3,3.3-5.2,7.7-5.2,12.4c0,4.7,1.9,9.1,5.2,12.4
				c3.3,3.3,7.7,5.2,12.4,5.2c4.7,0,9.1-1.9,12.4-5.2c3.3-3.3,5.2-7.7,5.2-12.4c0-4.7-1.9-9.1-5.2-12.4c-3.3-3.3-7.7-5.2-12.4-5.2
				C531.2,110.5,526.8,112.3,523.5,115.6z"/>
			<path class="st0" d="M606.2,153.6h-9l-12.9-17.3h-5.9v17.3h-8v-51.1h6.8h8.4c6.8,0,10.7,2.8,12.7,5.1c2.7,3,4.1,7.1,4.1,11.8
				c0,4.7-1.4,8.8-4.1,11.8c-1.2,1.4-3.2,3-5.9,3.9L606.2,153.6z M585.6,129.1c3.3,0,5.8-1,7.4-2.8c1.9-2.1,2.3-5,2.3-7
				c0-2.1-0.3-5-2.3-7c-1.6-1.8-4.1-2.7-7.4-2.7h-7.2v19.4H585.6z"/>
			<path class="st0" d="M625.4,151.6c-3.1-1.3-5.8-3.2-8.1-5.5c-2.3-2.3-4.2-5-5.5-8.1c-1.3-3.1-2-6.5-2-9.9c0-3.4,0.7-6.8,2-10
				c1.3-3,3.2-5.7,5.5-8.1c2.3-2.3,5-4.1,8.1-5.4c3.1-1.3,6.5-2,9.9-2c3.4,0,6.8,0.7,10,2c3,1.3,5.7,3.1,8.1,5.4
				c2.3,2.4,4.1,5.1,5.4,8.1c1.3,3.2,2,6.5,2,10c0,3.4-0.7,6.8-2,9.9c-1.3,3.1-3.1,5.8-5.4,8.1c-2.4,2.3-5.1,4.2-8.1,5.5
				c-3.2,1.3-6.5,2-10,2C631.9,153.6,628.5,152.9,625.4,151.6z M622.9,115.6c-3.3,3.3-5.2,7.7-5.2,12.4c0,4.7,1.9,9.1,5.2,12.4
				c3.3,3.3,7.7,5.2,12.4,5.2c4.7,0,9.1-1.9,12.4-5.2c3.3-3.3,5.2-7.7,5.2-12.4c0-4.7-1.9-9.1-5.2-12.4c-3.3-3.3-7.7-5.2-12.4-5.2
				C630.6,110.5,626.2,112.3,622.9,115.6z"/>
			<path class="st0" d="M677.9,120.7v32.9h-8v-53.5l32.1,35.2v-32.8h8.1v53.5L677.9,120.7z"/>
			<path class="st0" d="M753.6,109.6h-14.1v43.9h-8.1v-43.9h-14.1v-7.2h36.2V109.6z"/>
			<path class="st0" d="M770.6,151.6c-3.1-1.3-5.8-3.2-8.1-5.5c-2.3-2.3-4.2-5-5.5-8.1c-1.3-3.1-2-6.5-2-9.9c0-3.4,0.7-6.8,2-10
				c1.3-3,3.2-5.7,5.5-8.1c2.3-2.3,5-4.1,8.1-5.4c3.1-1.3,6.5-2,9.9-2c3.4,0,6.8,0.7,10,2c3,1.3,5.7,3.1,8.1,5.4
				c2.3,2.4,4.1,5.1,5.4,8.1c1.3,3.2,2,6.5,2,10c0,3.4-0.7,6.8-2,9.9c-1.3,3.1-3.1,5.8-5.4,8.1c-2.4,2.3-5.1,4.2-8.1,5.5
				c-3.2,1.3-6.5,2-10,2C777.1,153.6,773.7,152.9,770.6,151.6z M768.1,115.6c-3.3,3.3-5.2,7.7-5.2,12.4c0,4.7,1.9,9.1,5.2,12.4
				c3.3,3.3,7.7,5.2,12.4,5.2c4.7,0,9.1-1.9,12.4-5.2c3.3-3.3,5.2-7.7,5.2-12.4c0-4.7-1.9-9.1-5.2-12.4c-3.3-3.3-7.7-5.2-12.4-5.2
				C775.8,110.5,771.4,112.3,768.1,115.6z"/>
		</g>
		<g>
			<path class="st1" d="M504.8,306.7c-10.6,0-18.4-2.8-23.6-8.4c-5.2-5.6-8-14.6-8.4-26.9l21.1-3.2c0.1,7,0.9,12.1,2.5,15.2
				c1.6,3.2,4,4.7,7.2,4.7c4.2,0,6.2-2.7,6.2-8.1c0-3-0.5-5.8-1.6-8.3c-1.1-2.5-2.4-4.7-4-6.5c-1.6-1.8-3.8-3.9-6.6-6.3l-9.9-8.5
				c-2.4-2.1-4.3-3.9-5.9-5.6c-1.6-1.7-3.1-3.7-4.6-6.1c-1.5-2.4-2.6-5-3.3-7.8c-0.7-2.9-1.1-6-1.1-9.5c0-9.3,2.8-16.4,8.3-21.5
				c5.6-5.1,13.2-7.6,22.8-7.7c3.3,0,6.3,0.4,9,1.1c2.7,0.7,5,1.7,6.9,2.8c1.9,1.2,3.5,2.6,4.9,4.4c1.4,1.8,2.5,3.5,3.4,5.3
				c0.8,1.8,1.5,3.8,2.1,6c0.6,2.2,0.9,4.2,1.1,6.1c0.2,1.8,0.3,3.8,0.4,5.9l-21.3,2.8c0-1.9-0.1-3.4-0.2-4.7
				c-0.1-1.2-0.2-2.5-0.4-3.9c-0.2-1.4-0.4-2.5-0.7-3.4c-0.3-0.8-0.7-1.6-1.2-2.4c-0.5-0.7-1.2-1.3-1.9-1.6
				c-0.8-0.3-1.7-0.4-2.8-0.4c-2.2,0-3.8,1-4.9,2.7c-1.1,1.8-1.7,3.8-1.7,5.9c0,2.1,0.3,4,0.8,5.7c0.5,1.7,1.4,3.4,2.7,5
				c1.3,1.6,2.3,2.8,3.1,3.6c0.8,0.8,2.1,2.1,4,3.8l9.5,8.3c2.6,2.3,4.8,4.6,6.7,6.7c1.9,2.1,3.7,4.5,5.4,7.3c1.7,2.7,3,5.7,3.9,8.9
				c0.9,3.2,1.3,6.7,1.3,10.4c0,8.1-2.7,14.7-8.1,20.1C520.6,304,513.5,306.7,504.8,306.7z"/>
			<path class="st1" d="M556.2,305.1V212H539v-18.2h58.7V212h-16.9v93.2H556.2z"/>
			<path class="st1" d="M607.3,305.1V193.8h50v16.8h-25.5v27.5h19.4v17.1h-19.4v33.2h25.7v16.7H607.3z"/>
			<path class="st1" d="M663.4,305.1l21.1-111.4h27.8l21,111.4h-22.7l-3.8-23.6h-16.3l-3.8,23.6H663.4z M692.7,266.8h11.9l-6-43.1
				L692.7,266.8z"/>
			<path class="st1" d="M744.1,305.1l1.8-111.4h26.3l12.4,65.2l13.3-65.2h25.5l1.8,111.4h-17.6l-1.8-73.9l-13.1,73.9h-15.4
				l-13.7-74.4l-1.7,74.4H744.1z"/>
			<path class="st1" d="M876.6,305.1V193.8h17.3l22.9,53.5v-53.5h20.4v111.4h-16.7l-23-57.6v57.6H876.6z"/>
			<path class="st1" d="M956.6,233l-1.6-7.1c3.3,0,5.5-1.1,6.7-3.2c1.1-2.1,1.7-5.2,1.7-9.3h-9.7v-19.6h19.9
				c0,6.8-0.1,11.9-0.2,15.2c-0.3,8.5-1.7,14.6-4.1,18.4C967,231.1,962.8,233,956.6,233z"/>
			<path class="st1" d="M1052.4,306.7c-6.2,0-11.5-0.9-15.9-2.6c-4.4-1.7-7.8-4.3-10.4-7.6c-2.5-3.4-4.4-7.2-5.5-11.6
				c-1.1-4.4-1.7-9.5-1.7-15.4v-39.7c0-6,0.6-11.3,1.7-15.8c1.1-4.5,2.9-8.4,5.5-11.7c2.5-3.3,6-5.8,10.3-7.5
				c4.4-1.7,9.7-2.5,16-2.5c6,0,11.1,0.8,15.3,2.3c4.2,1.5,7.5,3.8,9.9,6.7c2.4,3,4.1,6.3,5.2,10.1c1.1,3.8,1.6,8.1,1.6,13.1v9.8
				h-24V223c0-1.7,0-3.1-0.1-4c0-0.9-0.2-2-0.5-3.5c-0.3-1.4-0.7-2.5-1.2-3.2c-0.5-0.7-1.3-1.4-2.4-1.9c-1.1-0.6-2.4-0.8-3.9-0.8
				c-1.5,0-2.8,0.3-3.9,0.8c-1.1,0.6-1.9,1.2-2.5,2c-0.6,0.8-1,1.9-1.3,3.2c-0.3,1.4-0.5,2.6-0.6,3.7c-0.1,1.1-0.1,2.5-0.1,4.2v51.9
				c0,4.5,0.6,7.9,1.7,10.2c1.2,2.4,3.4,3.5,6.6,3.5c1.5,0,2.7-0.3,3.8-0.8c1.1-0.6,1.8-1.2,2.4-2c0.5-0.8,1-1.8,1.2-3.2
				c0.3-1.4,0.5-2.6,0.5-3.6c0-1,0.1-2.4,0.1-4.1v-11.7h24v9.6c0,4-0.3,7.6-0.9,10.8c-0.6,3.2-1.7,6.3-3.2,9.1
				c-1.5,2.8-3.4,5.2-5.8,7.2c-2.4,1.9-5.5,3.4-9.2,4.5C1061.6,306.1,1057.3,306.7,1052.4,306.7z"/>
			<path class="st1" d="M1097.8,305.1V193.8h24.6v94.7h25.5v16.7H1097.8z"/>
			<path class="st1" d="M1158.7,305.1V193.8h50v16.8h-25.5v27.5h19.4v17.1h-19.4v33.2h25.7v16.7H1158.7z"/>
			<path class="st1" d="M1214.8,305.1l21.1-111.4h27.8l21,111.4H1262l-3.8-23.6h-16.3l-3.8,23.6H1214.8z M1244,266.8h11.9l-6-43.1
				L1244,266.8z"/>
			<path class="st1" d="M1295.8,305.1V193.8h17.3l22.9,53.5v-53.5h20.4v111.4h-16.7l-23-57.6v57.6H1295.8z"/>
		</g>
	</g>
</g>
</svg>
