<svg width="135" height="41" viewBox="0 0 135 41" fill="none" xmlns="http://www.w3.org/2000/svg">
<g clip-path="url(#clip0_438_2647)">
<path d="M42.4258 21.7954C42.376 21.8559 42.1869 21.9164 42.1173 21.9567C41.8486 22.118 41.5998 22.3196 41.3709 22.5313C40.5847 23.237 39.9179 24.0939 39.5596 25.1121C39.3506 25.7069 39.1516 26.3218 39.0719 26.957C38.9426 27.8844 39.2212 28.8825 39.3207 29.8099C39.4302 30.8584 39.48 31.927 39.4004 32.9754C39.3705 33.3585 39.3307 33.7416 39.2411 34.1146C39.2113 34.2557 39.0819 34.9916 38.9326 35.0521C38.9326 35.0521 41.56 34.1448 40.923 27.7836C40.7638 26.221 40.8932 24.6585 41.55 23.2068C41.7789 22.7027 42.0775 22.2289 42.4258 21.7954Z" fill="#3A962A"/>
<path d="M39.679 14.7689H39.0122V15.6258H34.0063V14.9705H33.0907C30.8216 8.34718 24.6115 3.58889 17.3067 3.58889C8.08109 3.58889 0.607077 11.1598 0.607077 20.505C0.607077 20.5857 0.607077 20.6663 0.607077 20.747H0C0 20.6663 0 20.5857 0 20.505C0 9.17384 9.05639 0 20.2425 0C29.4482 0 37.2307 6.24023 39.679 14.7689Z" fill="#313232"/>
<path d="M43.6594 17.9546H29.4678V20.8983H43.6594V17.9546Z" fill="#313232"/>
<path d="M39.1912 15.9382H33.9365V18.7912H39.1912V15.9382Z" fill="#313232"/>
<path d="M43.6594 21.4224H29.4678V22.1784H43.6594V21.4224Z" fill="#313232"/>
<path d="M2.38894 29.3966H35.0417V22.2591H34.6337L34.574 25.5758L34.0565 25.5456L34.0067 24.356L33.5191 24.3358L33.4693 22.9245L31.8969 22.9547V23.4487L31.5485 23.4588L31.5286 23.7915L31.2201 23.8116L31.24 25.3238H30.6329V22.9144L29.17 22.9245L29.16 23.2975L28.5729 23.2874V23.8721H28.334L28.344 25.9287L27.6772 25.9186L27.6672 26.4428L27.2791 26.4529L27.289 25.6666L26.7715 25.6867L26.7815 25.0113H26.4133L26.3934 24.4367L24.9901 24.4266L25.0001 24.8097L24.4826 24.7996V25.1927H24.184V26.9872H23.0793L23.1589 25.8379H22.9499L22.93 23.4588H20.1036L20.0041 28.1163L19.4269 27.5316L19.417 26.1404H19.208L19.2179 25.6363H18.8497V25.1927H17.8147L17.8047 25.4044L17.3569 25.4145L17.3668 26.967L16.3318 26.9872L16.3119 25.102L16.1726 25.1222L16.1825 24.7794L15.7048 24.7895L15.7247 25.2028H15.0679L14.2717 6.69385L13.6646 26.4932L12.7491 26.463V26.6848L12.3908 26.6747L12.3808 26.8965L12.0922 26.9065L12.1022 24.7996L11.7339 24.8097L11.724 24.5072L11.3458 24.4971L11.3359 24.8097L11.0672 24.7996L11.0572 25.0314L10.7387 25.0415L10.7586 26.5335L10.3307 26.5436L10.3108 26.2311L10.0222 26.221V25.848H9.65396V26.3017H9.27578V24.9407H8.83789L8.82794 24.7895H8.60899L8.61894 24.4871H8.25072V24.7895H7.80287V25.7674C7.80287 25.7674 5.3049 24.2048 1.59277 26.6243L2.38894 29.3966Z" fill="#313232"/>
<path d="M15.4257 15.021C15.4257 15.5855 14.9679 16.0492 14.4106 16.0492C13.8533 16.0492 13.3955 15.5855 13.3955 15.021C13.3955 14.4564 13.8533 13.9927 14.4106 13.9927C14.9779 13.9927 15.4257 14.4564 15.4257 15.021Z" fill="#313232"/>
<path d="M14.7492 10.686H13.8535V11.1195H14.7492V10.686Z" fill="#313232"/>
<path d="M14.54 10.3835H14.0723V10.7565H14.54V10.3835Z" fill="#313232"/>
<path d="M14.5004 10.2021H14.1123V10.4743H14.5004V10.2021Z" fill="#313232"/>
<path d="M14.4509 9.58716H14.1523V10.3432H14.4509V9.58716Z" fill="#313232"/>
<path d="M33.3093 36.1509C29.7863 39.1753 25.2182 40.9999 20.2422 40.9999C9.64324 40.9999 0.945119 32.7536 0.0693359 22.249H0.696317C1.56215 30.7676 8.66793 37.4211 17.3063 37.4211C19.5456 37.4211 21.6853 36.9776 23.6359 36.161H33.3093V36.1509Z" fill="#3A962A"/>
<path d="M33.6583 31.312C33.6583 32.2093 32.9417 32.925 32.066 32.925C31.1802 32.925 30.4736 32.1992 30.4736 31.312C30.4736 30.4148 31.1902 29.689 32.066 29.689C32.9417 29.699 33.6583 30.4249 33.6583 31.312Z" fill="#3A962A"/>
<path d="M35.8675 30.3442C35.8675 30.687 35.5988 30.9591 35.2604 30.9591C34.922 30.9591 34.6533 30.687 34.6533 30.3442C34.6533 30.0014 34.922 29.7292 35.2604 29.7292C35.5988 29.7292 35.8675 30.0014 35.8675 30.3442Z" fill="#3A962A"/>
<path d="M37.3897 28.9026C37.3797 29.1647 37.1807 29.5377 37.0712 29.7696C36.6333 30.6466 35.867 31.2918 35.051 31.7858C33.9662 32.4511 32.7719 32.8947 31.7369 33.6407C31.4383 33.8524 31.1199 34.0944 30.9308 34.4069C30.7716 34.6589 30.5924 35.2335 31.0005 35.3747C32.2743 35.8182 33.8069 35.3848 34.7922 34.5077C35.9765 33.4492 36.8423 31.9975 37.1906 30.4349C37.3001 29.9309 37.3698 29.4167 37.3897 28.9026Z" fill="#3A962A"/>
<path d="M38.9824 23.5293C38.5545 25.1322 38.2858 26.7452 38.0171 28.3884C37.7384 30.1324 37.3304 31.9067 36.4646 33.4592C36.2854 33.7818 36.0864 34.1044 35.8774 34.4068C35.5888 34.8403 35.2902 35.2033 34.9518 35.5863C34.8026 35.7577 34.2751 36.413 34.6632 36.6146C35.9172 37.2699 37.3901 36.1509 38.0171 35.1125C38.4848 34.3363 38.6043 33.3987 38.7834 32.5217C38.9625 31.6144 39.0521 30.6869 39.0322 29.7695C39.0223 29.0134 38.863 28.2372 38.7734 27.4811C38.6839 26.7049 38.7038 25.9286 38.7635 25.1524C38.8133 24.608 38.8829 24.0636 38.9824 23.5293Z" fill="#3A962A"/>
<path d="M50.6565 11.0491H49.2533V15.4747H48.4472V11.0491H47.0439V10.3232H50.6565V11.0491Z" fill="#3A962A"/>
<path d="M52.3484 15.283C52.0399 15.152 51.7712 14.9604 51.5423 14.7286C51.3134 14.4967 51.1243 14.2245 50.9949 13.912C50.8656 13.5995 50.7959 13.2567 50.7959 12.914C50.7959 12.5712 50.8656 12.2284 50.9949 11.9058C51.1243 11.6034 51.3134 11.3312 51.5423 11.0893C51.7712 10.8574 52.0399 10.6759 52.3484 10.5449C52.6569 10.4138 52.9953 10.3433 53.3337 10.3433C53.6721 10.3433 54.0104 10.4138 54.3289 10.5449C54.6275 10.6759 54.8962 10.8574 55.135 11.0893C55.3639 11.3312 55.543 11.6034 55.6724 11.9058C55.8018 12.2284 55.8715 12.5611 55.8715 12.914C55.8715 13.2567 55.8018 13.5995 55.6724 13.912C55.543 14.2245 55.3639 14.4967 55.135 14.7286C54.8962 14.9604 54.6275 15.152 54.3289 15.283C54.0104 15.4141 53.682 15.4846 53.3337 15.4846C52.9953 15.4846 52.6569 15.4141 52.3484 15.283ZM52.0996 11.6538C51.7712 11.9865 51.5821 12.4301 51.5821 12.9039C51.5821 13.3777 51.7712 13.8213 52.0996 14.1539C52.428 14.4866 52.8659 14.6782 53.3337 14.6782C53.8014 14.6782 54.2393 14.4866 54.5677 14.1539C54.8962 13.8213 55.0852 13.3777 55.0852 12.9039C55.0852 12.4301 54.8962 11.9865 54.5677 11.6538C54.2393 11.3211 53.8014 11.1296 53.3337 11.1296C52.8659 11.1397 52.428 11.3211 52.0996 11.6538Z" fill="#3A962A"/>
<path d="M60.3304 15.4847H59.4347L58.1509 13.7407H57.5637V15.4847H56.7676V10.3333H57.4443H58.2803C58.957 10.3333 59.3452 10.6155 59.5442 10.8474C59.8129 11.1498 59.9522 11.5632 59.9522 12.037C59.9522 12.5108 59.8129 12.9241 59.5442 13.2265C59.4248 13.3677 59.2257 13.529 58.957 13.6197L60.3304 15.4847ZM58.2803 13.0148C58.6087 13.0148 58.8575 12.914 59.0167 12.7326C59.2058 12.5209 59.2456 12.2285 59.2456 12.0269C59.2456 11.8152 59.2158 11.5228 59.0167 11.3212C58.8575 11.1397 58.6087 11.049 58.2803 11.049H57.5637V13.0048H58.2803V13.0148Z" fill="#3A962A"/>
<path d="M62.241 15.283C61.9325 15.152 61.6638 14.9604 61.4349 14.7286C61.206 14.4967 61.0169 14.2245 60.8875 13.912C60.7581 13.5995 60.6885 13.2567 60.6885 12.914C60.6885 12.5712 60.7581 12.2284 60.8875 11.9058C61.0169 11.6034 61.206 11.3312 61.4349 11.0893C61.6638 10.8574 61.9325 10.6759 62.241 10.5449C62.5495 10.4138 62.8879 10.3433 63.2263 10.3433C63.5646 10.3433 63.903 10.4138 64.2215 10.5449C64.52 10.6759 64.7887 10.8574 65.0276 11.0893C65.2565 11.3312 65.4356 11.6034 65.565 11.9058C65.6944 12.2284 65.764 12.5611 65.764 12.914C65.764 13.2567 65.6944 13.5995 65.565 13.912C65.4356 14.2245 65.2565 14.4967 65.0276 14.7286C64.7887 14.9604 64.52 15.152 64.2215 15.283C63.903 15.4141 63.5746 15.4846 63.2263 15.4846C62.8879 15.4846 62.5495 15.4141 62.241 15.283ZM61.9922 11.6538C61.6638 11.9865 61.4747 12.4301 61.4747 12.9039C61.4747 13.3777 61.6638 13.8213 61.9922 14.1539C62.3206 14.4866 62.7585 14.6782 63.2263 14.6782C63.694 14.6782 64.1319 14.4866 64.4603 14.1539C64.7887 13.8213 64.9778 13.3777 64.9778 12.9039C64.9778 12.4301 64.7887 11.9865 64.4603 11.6538C64.1319 11.3211 63.694 11.1296 63.2263 11.1296C62.7585 11.1397 62.3206 11.3211 61.9922 11.6538Z" fill="#3A962A"/>
<path d="M67.4661 12.168V15.4847H66.6699V10.0913L69.8645 13.6399V10.3333H70.6707V15.7267L67.4661 12.168Z" fill="#3A962A"/>
<path d="M74.9993 11.0491H73.5961V15.4747H72.79V11.0491H71.3867V10.3232H74.9894V11.0491H74.9993Z" fill="#3A962A"/>
<path d="M76.6912 15.283C76.3827 15.152 76.114 14.9604 75.8851 14.7286C75.6562 14.4967 75.4671 14.2245 75.3377 13.912C75.2083 13.5995 75.1387 13.2567 75.1387 12.914C75.1387 12.5712 75.2083 12.2284 75.3377 11.9058C75.4671 11.6034 75.6562 11.3312 75.8851 11.0893C76.114 10.8574 76.3827 10.6759 76.6912 10.5449C76.9997 10.4138 77.3381 10.3433 77.6765 10.3433C78.0148 10.3433 78.3532 10.4138 78.6717 10.5449C78.9702 10.6759 79.2389 10.8574 79.4778 11.0893C79.7067 11.3312 79.8858 11.6034 80.0152 11.9058C80.1446 12.2284 80.2142 12.5611 80.2142 12.914C80.2142 13.2567 80.1446 13.5995 80.0152 13.912C79.8858 14.2245 79.7067 14.4967 79.4778 14.7286C79.2389 14.9604 78.9702 15.152 78.6717 15.283C78.3532 15.4141 78.0248 15.4846 77.6765 15.4846C77.3381 15.4846 76.9997 15.4141 76.6912 15.283ZM76.4424 11.6538C76.114 11.9865 75.9249 12.4301 75.9249 12.9039C75.9249 13.3777 76.114 13.8213 76.4424 14.1539C76.7708 14.4866 77.2087 14.6782 77.6765 14.6782C78.1442 14.6782 78.5821 14.4866 78.9105 14.1539C79.2389 13.8213 79.428 13.3777 79.428 12.9039C79.428 12.4301 79.2389 11.9865 78.9105 11.6538C78.5821 11.3211 78.1442 11.1296 77.6765 11.1296C77.2087 11.1397 76.7708 11.3211 76.4424 11.6538Z" fill="#3A962A"/>
<path d="M50.2384 30.9189C49.1835 30.9189 48.4072 30.6366 47.8897 30.0721C47.3722 29.5075 47.0935 28.6002 47.0537 27.3602L49.1536 27.0376C49.1636 27.7433 49.2432 28.2575 49.4024 28.57C49.5616 28.8926 49.8005 29.0438 50.119 29.0438C50.5369 29.0438 50.736 28.7716 50.736 28.2272C50.736 27.9248 50.6862 27.6425 50.5768 27.3905C50.4673 27.1385 50.3379 26.9167 50.1787 26.7352C50.0194 26.5537 49.8005 26.342 49.5218 26.1001L48.5366 25.2432C48.2977 25.0315 48.1086 24.85 47.9494 24.6787C47.7902 24.5073 47.6409 24.3057 47.4916 24.0637C47.3423 23.8218 47.2328 23.5596 47.1632 23.2774C47.0935 22.985 47.0537 22.6725 47.0537 22.3197C47.0537 21.3821 47.3324 20.6664 47.8797 20.1522C48.4371 19.6381 49.1934 19.3861 50.1488 19.376C50.4772 19.376 50.7758 19.4163 51.0445 19.4869C51.3132 19.5574 51.5421 19.6582 51.7312 19.7691C51.9203 19.8901 52.0795 20.0313 52.2188 20.2127C52.3582 20.3942 52.4676 20.5656 52.5572 20.747C52.6368 20.9285 52.7065 21.1301 52.7662 21.3519C52.8259 21.5737 52.8558 21.7753 52.8757 21.9668C52.8956 22.1483 52.9055 22.3499 52.9155 22.5616L50.7957 22.8439C50.7957 22.6523 50.7857 22.5011 50.7758 22.3701C50.7658 22.2491 50.7559 22.118 50.736 21.9769C50.7161 21.8358 50.6962 21.7249 50.6663 21.6342C50.6365 21.5535 50.5967 21.4729 50.5469 21.3922C50.4971 21.3216 50.4275 21.2612 50.3578 21.2309C50.2782 21.2007 50.1886 21.1906 50.0791 21.1906C49.8602 21.1906 49.701 21.2914 49.5915 21.4628C49.482 21.6442 49.4223 21.8459 49.4223 22.0576C49.4223 22.2693 49.4522 22.4608 49.5019 22.6322C49.5517 22.8036 49.6413 22.9749 49.7706 23.1362C49.9 23.2975 49.9995 23.4185 50.0791 23.4992C50.1588 23.5798 50.2881 23.7109 50.4772 23.8822L51.4227 24.719C51.6814 24.9508 51.9004 25.1827 52.0895 25.3944C52.2786 25.6061 52.4577 25.8481 52.6269 26.1303C52.7961 26.4025 52.9254 26.705 53.015 27.0276C53.1046 27.3502 53.1444 27.703 53.1444 28.076C53.1444 28.8926 52.8757 29.5579 52.3383 30.1023C51.8108 30.6467 51.1042 30.9189 50.2384 30.9189Z" fill="#313232"/>
<path d="M55.3534 30.7577V21.3721H53.6416V19.5374H59.4835V21.3721H57.8016V30.7677H55.3534V30.7577Z" fill="#313232"/>
<path d="M60.4395 30.7577V19.5374H65.4155V21.231H62.8777V24.0033H64.8084V25.7272H62.8777V29.0741H65.4354V30.7577H60.4395Z" fill="#313232"/>
<path d="M66.0225 30.7575L68.1223 19.5271H70.889L72.979 30.7575H70.7198L70.3417 28.3783H68.7195L68.3413 30.7575H66.0225ZM68.9384 26.8964H70.1227L69.5256 22.5514L68.9384 26.8964Z" fill="#313232"/>
<path d="M74.0537 30.7575L74.2329 19.5271H76.8502L78.0843 26.1L79.4079 19.5271H81.9457L82.1249 30.7575H80.3733L80.1941 23.3075L78.8904 30.7575H77.3578L75.9944 23.2571L75.8252 30.7575H74.0537Z" fill="#313232"/>
<path d="M87.2402 30.7577V19.5374H88.9619L91.241 24.9308V19.5374H93.2712V30.7677H91.6092L89.3202 24.961V30.7677H87.2402V30.7577Z" fill="#313232"/>
<path d="M95.2017 23.4892L95.0425 22.7734C95.3709 22.7734 95.5898 22.6625 95.7093 22.4508C95.8187 22.2391 95.8784 21.9266 95.8784 21.5133H94.9131V19.5374H96.8935C96.8935 20.2229 96.8836 20.737 96.8736 21.0697C96.8438 21.9266 96.7045 22.5415 96.4656 22.9246C96.2367 23.2976 95.8187 23.4892 95.2017 23.4892Z" fill="#313232"/>
<path d="M104.736 30.9188C104.119 30.9188 103.592 30.8281 103.154 30.6567C102.716 30.4853 102.378 30.2232 102.119 29.8905C101.87 29.5478 101.681 29.1647 101.572 28.7211C101.462 28.2776 101.402 27.7634 101.402 27.1686V23.1664C101.402 22.5615 101.462 22.0272 101.572 21.5736C101.681 21.1199 101.86 20.7268 102.119 20.3941C102.368 20.0614 102.716 19.8094 103.144 19.638C103.582 19.4666 104.109 19.386 104.736 19.386C105.333 19.386 105.841 19.4666 106.259 19.6179C106.677 19.7691 107.005 20.0009 107.244 20.2933C107.483 20.5957 107.652 20.9284 107.762 21.3115C107.871 21.6946 107.921 22.1281 107.921 22.6321V23.6201H105.532V22.4809C105.532 22.3095 105.532 22.1684 105.523 22.0777C105.523 21.9869 105.503 21.876 105.473 21.7248C105.443 21.5837 105.403 21.4728 105.353 21.4022C105.304 21.3316 105.224 21.2611 105.114 21.2107C105.005 21.1502 104.876 21.13 104.726 21.13C104.577 21.13 104.448 21.1603 104.338 21.2107C104.229 21.2712 104.149 21.3316 104.089 21.4123C104.03 21.4929 103.99 21.6038 103.96 21.7349C103.93 21.876 103.91 21.997 103.9 22.1079C103.89 22.2188 103.89 22.3599 103.89 22.5313V27.7634C103.89 28.2171 103.95 28.5598 104.06 28.7917C104.179 29.0336 104.398 29.1445 104.716 29.1445C104.866 29.1445 104.985 29.1143 105.095 29.0639C105.204 29.0034 105.274 28.9429 105.333 28.8623C105.383 28.7816 105.433 28.6808 105.453 28.5397C105.483 28.3985 105.503 28.2776 105.503 28.1767C105.503 28.0759 105.513 27.9348 105.513 27.7634V26.5839H107.901V27.5517C107.901 27.955 107.871 28.3179 107.811 28.6405C107.752 28.9631 107.642 29.2756 107.493 29.5579C107.344 29.8401 107.155 30.0821 106.916 30.2837C106.677 30.4752 106.368 30.6265 106 30.7373C105.652 30.8583 105.224 30.9188 104.736 30.9188Z" fill="#313232"/>
<path d="M109.254 30.7577V19.5374H111.702V29.0842H114.24V30.7677H109.254V30.7577Z" fill="#313232"/>
<path d="M115.314 30.7577V19.5374H120.29V21.231H117.753V24.0033H119.683V25.7272H117.753V29.0741H120.31V30.7577H115.314Z" fill="#313232"/>
<path d="M120.898 30.7575L122.998 19.5271H125.765L127.855 30.7575H125.596L125.218 28.3783H123.595L123.217 30.7575H120.898ZM123.804 26.8964H124.989L124.392 22.5514L123.804 26.8964Z" fill="#313232"/>
<path d="M128.959 30.7577V19.5374H130.681L132.96 24.9308V19.5374H134.99V30.7677H133.328L131.039 24.961V30.7677H128.959V30.7577Z" fill="#313232"/>
</g>
<defs>
<clipPath id="clip0_438_2647">
<rect width="135" height="41" fill="white"/>
</clipPath>
</defs>
</svg>
