<svg width="188" height="57" viewBox="0 0 188 57" fill="none" xmlns="http://www.w3.org/2000/svg">
<g clip-path="url(#clip0_438_2576)">
<path d="M59.2674 30.301C59.1985 30.3851 58.9366 30.4692 58.8401 30.5253C58.4679 30.7495 58.1232 31.0298 57.8062 31.3241C56.7171 32.3052 55.7935 33.4965 55.2972 34.912C55.0077 35.7389 54.732 36.5939 54.6217 37.4768C54.4425 38.7662 54.8285 40.1537 54.9663 41.4431C55.118 42.9007 55.1869 44.3863 55.0766 45.8439C55.0353 46.3765 54.9801 46.9091 54.8561 47.4277C54.8147 47.6239 54.6355 48.647 54.4287 48.7311C54.4287 48.7311 58.0681 47.4697 57.1858 38.6261C56.9652 36.4537 57.1444 34.2814 58.0543 32.2632C58.3714 31.5624 58.7849 30.9037 59.2674 30.301Z" fill="#3A962A"/>
<path d="M55.4627 20.5323H54.5391V21.7236H47.605V20.8126H46.3367C43.1936 11.6046 34.5915 4.98943 24.4729 4.98943C11.6938 4.98943 1.34091 15.5149 1.34091 28.507C1.34091 28.6191 1.34091 28.7312 1.34091 28.8434H0.5C0.5 28.7312 0.5 28.6191 0.5 28.507C0.5 12.7539 13.0448 0 28.5397 0C41.2912 0 52.0715 8.67544 55.4627 20.5323Z" fill="white"/>
<path d="M60.9765 24.9612H41.3184V29.0536H60.9765V24.9612Z" fill="white"/>
<path d="M54.7875 22.1582H47.5088V26.1245H54.7875V22.1582Z" fill="white"/>
<path d="M60.9765 29.7825H41.3184V30.8336H60.9765V29.7825Z" fill="white"/>
<path d="M3.80889 40.8685H49.039V30.9457H48.4738L48.3911 35.5567L47.6743 35.5147L47.6054 33.8609L46.9299 33.8328L46.8609 31.8707L44.6828 31.9127V32.5995L44.2003 32.6135L44.1728 33.076L43.7454 33.104L43.773 35.2063H42.9321V31.8567L40.9056 31.8707L40.8918 32.3893L40.0785 32.3752V33.1881H39.7476L39.7614 36.0472L38.8378 36.0332L38.824 36.762L38.2864 36.776L38.3002 35.6828L37.5833 35.7109L37.5971 34.7719H37.087L37.0595 33.973L35.1157 33.959L35.1295 34.4915L34.4127 34.4775V35.0241H33.9991V37.5188H32.4689L32.5792 35.9211H32.2897L32.2621 32.6135H28.347L28.2092 39.0885L27.4096 38.2757L27.3958 36.3416H27.1063L27.1201 35.6408H26.6101V35.0241H25.1764L25.1626 35.3184L24.5422 35.3325L24.556 37.4908L23.1223 37.5188L23.0948 34.898L22.9018 34.926L22.9156 34.4495L22.2539 34.4635L22.2814 35.0381H21.3716L20.2688 9.30615L19.4278 36.8321L18.1596 36.79V37.0984L17.6633 37.0844L17.6495 37.3927L17.2497 37.4067L17.2635 34.4775L16.7535 34.4915L16.7397 34.0711L16.2158 34.0571L16.202 34.4915L15.8298 34.4775L15.816 34.7999L15.3749 34.8139L15.4025 36.8882L14.8097 36.9022L14.7821 36.4677L14.3824 36.4537V35.9351H13.8723V36.5658H13.3484V34.6737H12.7419L12.7281 34.4635H12.4248L12.4386 34.0431H11.9285V34.4635H11.3082V35.823C11.3082 35.823 7.84804 33.6506 2.70605 37.0143L3.80889 40.8685Z" fill="white"/>
<path d="M21.8679 20.8827C21.8679 21.6675 21.2338 22.3122 20.4618 22.3122C19.6898 22.3122 19.0557 21.6675 19.0557 20.8827C19.0557 20.0978 19.6898 19.4531 20.4618 19.4531C21.2476 19.4531 21.8679 20.0978 21.8679 20.8827Z" fill="white"/>
<path d="M20.9301 14.8562H19.6895V15.4589H20.9301V14.8562Z" fill="white"/>
<path d="M20.6411 14.4358H19.9932V14.9544H20.6411V14.4358Z" fill="white"/>
<path d="M20.5855 14.1833H20.0479V14.5618H20.5855V14.1833Z" fill="white"/>
<path d="M20.5171 13.3286H20.1035V14.3798H20.5171V13.3286Z" fill="white"/>
<path d="M46.6402 50.2587C41.7601 54.4632 35.4326 57 28.5398 57C13.8583 57 1.8098 45.5355 0.59668 30.9316H1.46516C2.6645 42.7745 12.5073 52.0246 24.4731 52.0246C27.5749 52.0246 30.5387 51.4079 33.2407 50.2727H46.6402V50.2587Z" fill="#3A962A"/>
<path d="M47.1223 43.5314C47.1223 44.7787 46.1297 45.7738 44.9166 45.7738C43.6897 45.7738 42.7109 44.7647 42.7109 43.5314C42.7109 42.284 43.7035 41.2749 44.9166 41.2749C46.1297 41.2889 47.1223 42.298 47.1223 43.5314Z" fill="#3A962A"/>
<path d="M50.1828 42.186C50.1828 42.6625 49.8106 43.0409 49.3419 43.0409C48.8732 43.0409 48.501 42.6625 48.501 42.186C48.501 41.7095 48.8732 41.3311 49.3419 41.3311C49.8106 41.3311 50.1828 41.7095 50.1828 42.186Z" fill="#3A962A"/>
<path d="M52.2916 40.1816C52.2778 40.546 52.0021 41.0646 51.8504 41.3869C51.2439 42.6063 50.1824 43.5033 49.052 44.19C47.5493 45.115 45.8951 45.7317 44.4614 46.7688C44.0478 47.0631 43.6067 47.3995 43.3448 47.834C43.1242 48.1843 42.8761 48.9832 43.4413 49.1794C45.2058 49.7961 47.3288 49.1934 48.6935 47.9741C50.334 46.5025 51.5333 44.4843 52.0158 42.312C52.1675 41.6112 52.264 40.8964 52.2916 40.1816Z" fill="#3A962A"/>
<path d="M54.4978 32.7117C53.9051 34.9401 53.5329 37.1825 53.1606 39.467C52.7747 41.8917 52.2094 44.3583 51.0101 46.5167C50.762 46.9652 50.4863 47.4137 50.1968 47.8341C49.797 48.4368 49.3834 48.9413 48.9147 49.4739C48.7079 49.7122 47.9773 50.6232 48.5149 50.9035C50.2519 51.8144 52.2922 50.2588 53.1606 48.8152C53.8086 47.736 53.974 46.4326 54.2221 45.2133C54.4703 43.9519 54.5943 42.6625 54.5668 41.3871C54.553 40.336 54.3324 39.2568 54.2083 38.2056C54.0843 37.1265 54.1118 36.0473 54.1946 34.9681C54.2635 34.2113 54.36 33.4545 54.4978 32.7117Z" fill="#3A962A"/>
<path d="M70.6682 15.3607H68.7244V21.5134H67.6078V15.3607H65.6641V14.3516H70.6682V15.3607Z" fill="#3A962A"/>
<path d="M73.0119 21.2471C72.5845 21.0649 72.2123 20.7986 71.8952 20.4763C71.5782 20.1539 71.3163 19.7755 71.137 19.341C70.9578 18.9066 70.8613 18.43 70.8613 17.9535C70.8613 17.477 70.9578 17.0005 71.137 16.552C71.3163 16.1315 71.5782 15.7531 71.8952 15.4168C72.2123 15.0944 72.5845 14.8421 73.0119 14.6599C73.4392 14.4777 73.9079 14.3796 74.3766 14.3796C74.8453 14.3796 75.314 14.4777 75.7552 14.6599C76.1687 14.8421 76.5409 15.0944 76.8718 15.4168C77.1889 15.7531 77.437 16.1315 77.6162 16.552C77.7954 17.0005 77.8919 17.463 77.8919 17.9535C77.8919 18.43 77.7954 18.9066 77.6162 19.341C77.437 19.7755 77.1889 20.1539 76.8718 20.4763C76.5409 20.7986 76.1687 21.0649 75.7552 21.2471C75.314 21.4293 74.8591 21.5274 74.3766 21.5274C73.9079 21.5274 73.4392 21.4293 73.0119 21.2471ZM72.6672 16.2016C72.2123 16.6641 71.9504 17.2808 71.9504 17.9395C71.9504 18.5982 72.2123 19.2149 72.6672 19.6774C73.1221 20.1399 73.7287 20.4062 74.3766 20.4062C75.0245 20.4062 75.6311 20.1399 76.086 19.6774C76.5409 19.2149 76.8029 18.5982 76.8029 17.9395C76.8029 17.2808 76.5409 16.6641 76.086 16.2016C75.6311 15.7391 75.0245 15.4728 74.3766 15.4728C73.7287 15.4868 73.1221 15.7391 72.6672 16.2016Z" fill="#3A962A"/>
<path d="M84.068 21.5275H82.8273L81.049 19.1029H80.2357V21.5275H79.1328V14.3657H80.0702H81.2282C82.1656 14.3657 82.7032 14.7581 82.979 15.0805C83.3512 15.501 83.5442 16.0756 83.5442 16.7343C83.5442 17.393 83.3512 17.9676 82.979 18.3881C82.8135 18.5843 82.5378 18.8086 82.1656 18.9347L84.068 21.5275ZM81.2282 18.0938C81.6831 18.0938 82.0278 17.9536 82.2483 17.7014C82.5103 17.407 82.5654 17.0006 82.5654 16.7203C82.5654 16.426 82.524 16.0195 82.2483 15.7392C82.0278 15.4869 81.6831 15.3608 81.2282 15.3608H80.2357V18.0798H81.2282V18.0938Z" fill="#3A962A"/>
<path d="M86.714 21.2471C86.2867 21.0649 85.9145 20.7986 85.5974 20.4763C85.2803 20.1539 85.0184 19.7755 84.8392 19.341C84.66 18.9066 84.5635 18.43 84.5635 17.9535C84.5635 17.477 84.66 17.0005 84.8392 16.552C85.0184 16.1315 85.2803 15.7531 85.5974 15.4168C85.9145 15.0944 86.2867 14.8421 86.714 14.6599C87.1414 14.4777 87.6101 14.3796 88.0788 14.3796C88.5475 14.3796 89.0162 14.4777 89.4573 14.6599C89.8709 14.8421 90.2431 15.0944 90.5739 15.4168C90.891 15.7531 91.1391 16.1315 91.3184 16.552C91.4976 17.0005 91.5941 17.463 91.5941 17.9535C91.5941 18.43 91.4976 18.9066 91.3184 19.341C91.1391 19.7755 90.891 20.1539 90.5739 20.4763C90.2431 20.7986 89.8709 21.0649 89.4573 21.2471C89.0162 21.4293 88.5613 21.5274 88.0788 21.5274C87.6101 21.5274 87.1414 21.4293 86.714 21.2471ZM86.3694 16.2016C85.9145 16.6641 85.6525 17.2808 85.6525 17.9395C85.6525 18.5982 85.9145 19.2149 86.3694 19.6774C86.8243 20.1399 87.4309 20.4062 88.0788 20.4062C88.7267 20.4062 89.3333 20.1399 89.7882 19.6774C90.2431 19.2149 90.505 18.5982 90.505 17.9395C90.505 17.2808 90.2431 16.6641 89.7882 16.2016C89.3333 15.7391 88.7267 15.4728 88.0788 15.4728C87.4309 15.4868 86.8243 15.7391 86.3694 16.2016Z" fill="#3A962A"/>
<path d="M93.9515 16.9164V21.5275H92.8486V14.0293L97.2738 18.9627V14.3657H98.3904V21.8638L93.9515 16.9164Z" fill="#3A962A"/>
<path d="M104.388 15.3607H102.444V21.5134H101.328V15.3607H99.3838V14.3516H104.374V15.3607H104.388Z" fill="#3A962A"/>
<path d="M106.731 21.2471C106.303 21.0649 105.931 20.7986 105.614 20.4763C105.297 20.1539 105.035 19.7755 104.856 19.341C104.677 18.9066 104.58 18.43 104.58 17.9535C104.58 17.477 104.677 17.0005 104.856 16.552C105.035 16.1315 105.297 15.7531 105.614 15.4168C105.931 15.0944 106.303 14.8421 106.731 14.6599C107.158 14.4777 107.627 14.3796 108.095 14.3796C108.564 14.3796 109.033 14.4777 109.474 14.6599C109.887 14.8421 110.26 15.0944 110.591 15.4168C110.908 15.7531 111.156 16.1315 111.335 16.552C111.514 17.0005 111.611 17.463 111.611 17.9535C111.611 18.43 111.514 18.9066 111.335 19.341C111.156 19.7755 110.908 20.1539 110.591 20.4763C110.26 20.7986 109.887 21.0649 109.474 21.2471C109.033 21.4293 108.578 21.5274 108.095 21.5274C107.627 21.5274 107.158 21.4293 106.731 21.2471ZM106.386 16.2016C105.931 16.6641 105.669 17.2808 105.669 17.9395C105.669 18.5982 105.931 19.2149 106.386 19.6774C106.841 20.1399 107.447 20.4062 108.095 20.4062C108.743 20.4062 109.35 20.1399 109.805 19.6774C110.26 19.2149 110.522 18.5982 110.522 17.9395C110.522 17.2808 110.26 16.6641 109.805 16.2016C109.35 15.7391 108.743 15.4728 108.095 15.4728C107.447 15.4868 106.841 15.7391 106.386 16.2016Z" fill="#3A962A"/>
<path d="M70.0891 42.9847C68.6278 42.9847 67.5526 42.5923 66.8357 41.8074C66.1189 41.0226 65.7329 39.7612 65.6777 38.0373L68.5865 37.5888C68.6003 38.5699 68.7105 39.2847 68.9311 39.7192C69.1517 40.1676 69.4825 40.3779 69.9237 40.3779C70.5027 40.3779 70.7784 39.9995 70.7784 39.2426C70.7784 38.8222 70.7094 38.4298 70.5578 38.0794C70.4062 37.729 70.2269 37.4207 70.0064 37.1684C69.7858 36.9161 69.4825 36.6218 69.0965 36.2854L67.7318 35.0941C67.4009 34.7998 67.139 34.5475 66.9184 34.3093C66.6979 34.071 66.4911 33.7907 66.2843 33.4543C66.0775 33.118 65.9259 32.7536 65.8294 32.3612C65.7329 31.9547 65.6777 31.5202 65.6777 31.0297C65.6777 29.7263 66.0637 28.7312 66.8219 28.0164C67.5939 27.3017 68.6416 26.9513 69.965 26.9373C70.4199 26.9373 70.8335 26.9933 71.2057 27.0914C71.5779 27.1895 71.895 27.3297 72.1569 27.4839C72.4188 27.652 72.6394 27.8482 72.8324 28.1005C73.0254 28.3528 73.177 28.5911 73.3011 28.8433C73.4114 29.0956 73.5079 29.3759 73.5906 29.6842C73.6733 29.9926 73.7147 30.2729 73.7422 30.5392C73.7698 30.7914 73.7836 31.0718 73.7974 31.3661L70.8611 31.7585C70.8611 31.4922 70.8473 31.282 70.8335 31.0998C70.8197 30.9316 70.8059 30.7494 70.7784 30.5532C70.7508 30.357 70.7232 30.2028 70.6819 30.0767C70.6405 29.9645 70.5854 29.8524 70.5164 29.7403C70.4475 29.6422 70.351 29.5581 70.2545 29.5161C70.1442 29.474 70.0202 29.46 69.8685 29.46C69.5652 29.46 69.3447 29.6002 69.193 29.8384C69.0414 30.0907 68.9587 30.371 68.9587 30.6653C68.9587 30.9596 69 31.2259 69.069 31.4642C69.1379 31.7024 69.262 31.9407 69.4412 32.1649C69.6204 32.3892 69.7582 32.5574 69.8685 32.6695C69.9788 32.7816 70.158 32.9638 70.4199 33.2021L71.7296 34.3653C72.088 34.6877 72.3913 35.01 72.6532 35.3044C72.9151 35.5987 73.1632 35.935 73.3976 36.3275C73.632 36.7059 73.8112 37.1263 73.9352 37.5748C74.0593 38.0233 74.1144 38.5138 74.1144 39.0324C74.1144 40.1676 73.7422 41.0927 72.9978 41.8495C72.2672 42.6063 71.2884 42.9847 70.0891 42.9847Z" fill="white"/>
<path d="M77.1748 42.7606V29.7124H74.8037V27.1616H82.8958V29.7124H80.566V42.7746H77.1748V42.7606Z" fill="white"/>
<path d="M84.2188 42.7606V27.1616H91.1115V29.5162H87.5962V33.3704H90.2706V35.767H87.5962V40.42H91.1391V42.7606H84.2188Z" fill="white"/>
<path d="M91.9531 42.7604L94.8619 27.1475H98.6942L101.589 42.7604H98.4599L97.936 39.4528H95.689L95.1651 42.7604H91.9531ZM95.9923 37.3926H97.6327L96.8056 31.352L95.9923 37.3926Z" fill="white"/>
<path d="M103.077 42.7604L103.325 27.1475H106.951L108.66 36.2854L110.494 27.1475H114.009L114.257 42.7604H111.831L111.583 32.4032L109.777 42.7604H107.654L105.765 32.3331L105.531 42.7604H103.077Z" fill="white"/>
<path d="M121.344 42.7606V27.1616H123.729L126.886 34.6598V27.1616H129.698V42.7746H127.396L124.225 34.7018V42.7746H121.344V42.7606Z" fill="white"/>
<path d="M132.371 32.6556L132.151 31.6605C132.606 31.6605 132.909 31.5063 133.075 31.212C133.226 30.9177 133.309 30.4832 133.309 29.9086H131.972V27.1616H134.715C134.715 28.1147 134.701 28.8294 134.687 29.2919C134.646 30.4832 134.453 31.3382 134.122 31.8707C133.805 32.3893 133.226 32.6556 132.371 32.6556Z" fill="white"/>
<path d="M145.578 42.9846C144.723 42.9846 143.993 42.8585 143.386 42.6202C142.78 42.382 142.311 42.0176 141.953 41.5551C141.608 41.0785 141.346 40.546 141.194 39.9293C141.043 39.3126 140.96 38.5978 140.96 37.7709V32.2069C140.96 31.366 141.043 30.6232 141.194 29.9925C141.346 29.3618 141.594 28.8152 141.953 28.3527C142.297 27.8902 142.78 27.5398 143.372 27.3016C143.979 27.0633 144.71 26.9512 145.578 26.9512C146.405 26.9512 147.108 27.0633 147.687 27.2735C148.266 27.4838 148.721 27.8061 149.052 28.2125C149.383 28.633 149.617 29.0955 149.769 29.6281C149.921 30.1607 149.989 30.7633 149.989 31.4641V32.8376H146.681V31.2539C146.681 31.0156 146.681 30.8194 146.667 30.6932C146.667 30.5671 146.64 30.4129 146.598 30.2027C146.557 30.0065 146.502 29.8523 146.433 29.7542C146.364 29.6561 146.254 29.558 146.102 29.4879C145.95 29.4038 145.771 29.3758 145.564 29.3758C145.358 29.3758 145.178 29.4179 145.027 29.4879C144.875 29.572 144.765 29.6561 144.682 29.7682C144.599 29.8804 144.544 30.0345 144.503 30.2167C144.461 30.4129 144.434 30.5811 144.42 30.7353C144.406 30.8895 144.406 31.0857 144.406 31.3239V38.5978C144.406 39.2285 144.489 39.705 144.641 40.0274C144.806 40.3638 145.109 40.5179 145.551 40.5179C145.757 40.5179 145.923 40.4759 146.074 40.4058C146.226 40.3217 146.323 40.2376 146.405 40.1255C146.474 40.0134 146.543 39.8732 146.571 39.677C146.612 39.4808 146.64 39.3126 146.64 39.1725C146.64 39.0323 146.653 38.8361 146.653 38.5978V36.9581H149.962V38.3035C149.962 38.8641 149.921 39.3687 149.838 39.8172C149.755 40.2657 149.603 40.7001 149.397 41.0926C149.19 41.485 148.928 41.8213 148.597 42.1016C148.266 42.3679 147.839 42.5782 147.329 42.7323C146.846 42.9005 146.254 42.9846 145.578 42.9846Z" fill="white"/>
<path d="M151.837 42.7606V27.1616H155.228V40.4341H158.743V42.7746H151.837V42.7606Z" fill="white"/>
<path d="M160.232 42.7606V27.1616H167.125V29.5162H163.61V33.3704H166.284V35.767H163.61V40.42H167.153V42.7606H160.232Z" fill="white"/>
<path d="M167.966 42.7604L170.875 27.1475H174.707L177.602 42.7604H174.473L173.949 39.4528H171.702L171.178 42.7604H167.966ZM171.991 37.3926H173.632L172.805 31.352L171.991 37.3926Z" fill="white"/>
<path d="M179.132 42.7606V27.1616H181.517L184.674 34.6598V27.1616H187.486V42.7746H185.184L182.013 34.7018V42.7746H179.132V42.7606Z" fill="white"/>
</g>
<defs>
<clipPath id="clip0_438_2576">
<rect width="187" height="57" fill="white" transform="translate(0.5)"/>
</clipPath>
</defs>
</svg>
